<svg width="43" height="55" viewBox="0 0 43 55" fill="none" xmlns="http://www.w3.org/2000/svg">
<path d="M37.8515 32.2684V16.3934C37.8515 7.35376 30.4977 0 21.458 0C12.4183 0 5.06457 7.35376 5.06457 16.3934V32.2695C2.15033 33.1143 0 35.7952 0 39.0905C0 42.9425 3.13428 46.0768 6.98719 46.0768H13.3677V46.1597C13.3677 50.621 16.9967 54.25 21.458 54.25C25.9193 54.25 29.5483 50.621 29.5483 46.1597V46.0768H35.9288C39.7818 46.0768 42.916 42.9425 42.916 38.952C42.916 35.7711 40.7657 33.1096 37.8515 32.2684ZM10.3146 16.3934C10.3146 10.2488 15.3134 5.25 21.458 5.25C27.6027 5.25 32.6015 10.2488 32.6015 16.3934V31.9657H10.3146V16.3934ZM24.2983 46.1597C24.2983 47.7259 23.0243 49 21.458 49C19.8917 49 18.6177 47.7259 18.6177 46.1597V46.0768H24.2983V46.1597H24.2983ZM35.9288 40.8268H6.98719C6.02931 40.8268 5.25 40.0475 5.25 38.952C5.25 37.995 6.02929 37.2157 6.98719 37.2157H35.9288C36.8867 37.2157 37.666 37.995 37.666 39.0905C37.666 40.0475 36.8867 40.8268 35.9288 40.8268Z" fill="#013B61"/>
</svg>
