<svg xmlns="http://www.w3.org/2000/svg" width="24" height="24" viewBox="0 0 24 24">
    <g fill="none" fill-rule="evenodd">
        <g fill="#00708D">
            <path d="M16.146 7.146L12 11.292 7.853 7.146l-.707.707L11.292 12l-4.146 4.146.707.707L12 12.707l4.146 4.146.707-.707L12.707 12l4.146-4.147-.707-.707zM12 1c6.075 0 11 4.924 11 11 0 6.075-4.925 11-11 11-6.076 0-11-4.925-11-11C1 5.924 5.924 1 12 1zm0 1C6.485 2 2 6.485 2 12c0 5.514 4.485 10 10 10 5.513 0 10-4.486 10-10 0-5.515-4.487-10-10-10z"/>
        </g>
    </g>
</svg>
