<svg width="72" height="72" viewBox="0 0 72 72" fill="none" xmlns="http://www.w3.org/2000/svg">
<path d="M0 36C0 16.1178 16.1178 0 36 0C55.8823 0 72 16.1178 72 36C72 55.8823 55.8823 72 36 72C16.1178 72 0 55.8823 0 36Z" fill="#FF6551"/>
<g clip-path="url(#clip0_3492_411)">
<g clip-path="url(#clip1_3492_411)">
<path d="M51 43.8747C51 42.6541 50.2139 41.6232 49.125 41.2349V31.5228L51 30.7497L35 24.3301L19 30.7497L35 37.1694L47.25 32.2756V41.2349C46.1611 41.6232 45.375 42.6541 45.375 43.8747C45.375 44.9922 46.035 45.9515 46.9813 46.4048L45.4236 51.0781L47.2015 51.6713L48.1875 48.7133L49.1735 51.6713L50.9514 51.0781L49.3937 46.4048C50.34 45.9515 51 44.9923 51 43.8747Z" fill="white"/>
</g>
</g>
<g clip-path="url(#clip2_3492_411)">
<g clip-path="url(#clip3_3492_411)">
<path d="M35 39.1888L26.5625 35.8008V38.2485C26.5625 40.921 30.1898 42.936 35 42.936C39.8102 42.936 43.4375 40.921 43.4375 38.2485V35.8008L35 39.1888Z" fill="white"/>
</g>
</g>
<defs>
<clipPath id="clip0_3492_411">
<rect width="32" height="27.3413" fill="white" transform="translate(19 24.3301)"/>
</clipPath>
<clipPath id="clip1_3492_411">
<rect width="32" height="27.3413" fill="white" transform="translate(19 24.3301)"/>
</clipPath>
<clipPath id="clip2_3492_411">
<rect width="16.875" height="7.13525" fill="white" transform="translate(26.5625 35.8008)"/>
</clipPath>
<clipPath id="clip3_3492_411">
<rect width="16.875" height="7.13525" fill="white" transform="translate(26.5625 35.8008)"/>
</clipPath>
</defs>
</svg>
