<svg width="221" height="213" viewBox="0 0 221 213" fill="none" xmlns="http://www.w3.org/2000/svg">
<path d="M191.616 30.0805L180.822 89.5959C180.8 89.7149 180.809 89.838 180.846 89.9526C180.882 90.0671 180.947 90.1688 181.032 90.247C181.117 90.3253 181.22 90.3772 181.329 90.3974C181.44 90.4175 181.553 90.4052 181.656 90.3616L193.196 85.6268C193.223 85.8014 193.251 85.982 193.277 86.1495C196.048 105.158 194.018 124.629 187.404 142.478C180.789 160.326 169.84 175.88 155.73 187.473C141.618 199.065 124.877 206.261 107.296 208.289C89.7171 210.317 71.962 207.1 55.9329 198.984C72.7405 209.132 91.8284 213.937 111.022 212.849C130.215 211.761 148.742 204.827 164.491 192.834C180.241 180.841 192.58 164.274 200.102 145.018C207.624 125.763 210.028 104.594 207.037 83.9248L220.327 85.0992C220.44 85.1089 220.552 85.0851 220.654 85.0303C220.755 84.9756 220.84 84.892 220.902 84.7883C220.963 84.6847 220.996 84.5651 221 84.4421C221.003 84.3192 220.976 84.1976 220.92 84.0903L192.769 29.8747C192.706 29.7543 192.611 29.6579 192.496 29.5982C192.381 29.5386 192.252 29.5186 192.127 29.541C192.001 29.5634 191.885 29.6272 191.793 29.7235C191.702 29.82 191.64 29.9446 191.616 30.0805Z" fill="#E5E5E5"/>
<path d="M171.001 154.246C162.283 166.318 151.086 175.998 138.311 182.507C125.534 189.017 111.535 192.176 97.4354 191.73C83.3354 191.284 69.5279 187.246 57.1206 179.94C44.7132 172.634 34.0515 162.263 25.9912 149.66C17.9308 137.058 12.696 122.573 10.7069 107.369C8.71786 92.1652 10.0298 76.6654 14.5377 62.1134C19.0455 47.5615 26.6236 34.3624 36.6638 23.5755C46.7041 12.7886 58.927 4.71411 72.3518 0C55.0527 4.6289 39.2968 14.4582 26.8817 28.3667C14.4665 42.2752 5.89199 59.7027 2.13621 78.6612C-1.61959 97.6198 -0.405393 117.346 5.6403 135.589C11.686 153.833 22.3198 169.858 36.3285 181.839C50.3372 193.82 67.1568 201.273 84.8685 203.347C102.58 205.421 120.471 202.035 136.5 193.572C152.529 185.109 166.05 171.913 175.522 155.487C184.992 139.061 190.033 120.067 190.067 100.673C188.795 120.209 182.151 138.876 171.001 154.246Z" fill="#E5E5E5"/>
<path d="M151.164 50.504C145.605 58.2127 139.283 65.2319 132.312 71.4348C132.242 71.4978 132.184 71.5773 132.145 71.6673C132.106 71.7573 132.086 71.8558 132.086 71.9554V168.256C132.086 169.031 131.86 169.786 131.44 170.411C131.02 171.038 130.429 171.502 129.752 171.738L129.68 171.763C129.177 171.939 128.644 171.982 128.124 171.89C127.603 171.8 127.109 171.575 126.684 171.237C126.257 170.898 125.911 170.455 125.672 169.943C125.433 169.431 125.308 168.865 125.308 168.291V78.5082C125.308 78.3847 125.278 78.2636 125.219 78.158C125.161 78.0523 125.077 77.9662 124.976 77.9091C124.876 77.8519 124.762 77.826 124.649 77.8339C124.536 77.8419 124.427 77.8835 124.334 77.9543C115.105 84.8732 105.043 90.3731 94.433 94.2986C94.3106 94.3434 94.2041 94.4292 94.1281 94.5436C94.053 94.658 94.0123 94.7953 94.0123 94.9362V172.712C94.0123 173.251 93.902 173.785 93.6898 174.272C93.4776 174.761 93.169 175.192 92.7862 175.535C92.4028 175.878 91.9546 176.123 91.4736 176.255C90.9927 176.386 90.4908 176.4 90.0043 176.295L89.8727 176.267C89.114 176.104 88.431 175.658 87.9407 175.006C87.4505 174.354 87.1835 173.538 87.1854 172.696C87.203 164.322 87.2206 153.047 87.2335 153.055V97.5826C87.2335 97.4791 87.2117 97.377 87.1696 97.2842C87.1275 97.1914 87.0664 97.1104 86.9909 97.0475C86.9155 96.9845 86.8277 96.9414 86.7345 96.9213C86.6413 96.9013 86.545 96.9048 86.4533 96.9318L86.1465 97.0196C77.4911 99.496 69.8327 105.023 64.3673 112.738C58.9019 120.454 55.9373 129.923 55.9365 139.666V152.44C55.9382 153.153 55.7476 153.852 55.3884 154.449C55.0292 155.046 54.5171 155.515 53.9156 155.798C53.314 156.081 52.6494 156.167 52.0039 156.043C51.3584 155.919 50.7604 155.593 50.2838 155.102C36.9899 141.191 28.5372 122.693 26.3656 102.758C24.194 82.8236 28.4379 62.6857 38.3743 45.7754C48.3107 28.8652 63.3248 16.2287 80.859 10.0187C98.3927 3.80876 117.362 4.40948 134.535 11.7186C121.014 4.7205 106.019 1.78885 91.1063 3.22776C76.1934 4.66665 61.9058 10.4237 49.7256 19.9015C37.5455 29.3795 27.9167 42.233 21.8379 57.1287C15.7592 72.0243 13.452 88.4194 15.1558 104.614C16.8597 120.807 22.5124 136.209 31.5275 149.222C40.5427 162.236 52.5919 172.386 66.4251 178.62C80.2583 184.853 95.3717 186.943 110.197 184.674C125.023 182.404 139.02 175.856 150.738 165.711C154.825 162.64 158.638 159.156 162.125 155.305L162.491 154.878C163.068 154.204 163.389 153.316 163.387 152.394V33.6119C163.387 33.6119 163.387 33.1881 163.387 32.6262C163.388 32.4759 163.342 32.3296 163.259 32.2103C163.175 32.091 163.057 32.0055 162.923 31.9672C162.79 31.929 162.648 31.9402 162.521 31.999C162.394 32.0578 162.29 32.161 162.222 32.2922C158.998 38.6809 155.3 44.7718 151.164 50.504Z" fill="#E5E5E5"/>
</svg>
